<svg xmlns="http://www.w3.org/2000/svg" xmlns:xlink="http://www.w3.org/1999/xlink" width="250" zoomAndPan="magnify" viewBox="0 0 187.5 37.5" height="50" preserveAspectRatio="xMidYMid meet" version="1.0"><defs><g/></defs><g fill="#545454" fill-opacity="0.4"><g transform="translate(74.980445, 31.315609)"><g><path d="M 21.503906 -17.691406 C 21.503906 -21.625 19.179688 -24.785156 12.828125 -24.785156 L 2.167969 -24.785156 L 2.167969 0 L 12.828125 0 C 19.363281 0 21.503906 -4.214844 21.503906 -8.117188 C 21.503906 -9.945312 21.007812 -11.617188 19.828125 -12.890625 C 21.039062 -14.128906 21.503906 -15.832031 21.503906 -17.691406 Z M 6.816406 -20.167969 L 14.4375 -20.167969 C 15.894531 -20.167969 16.886719 -18.898438 16.886719 -17.691406 C 16.886719 -16.636719 16.050781 -15.210938 14.4375 -15.210938 L 6.816406 -15.210938 Z M 13.972656 -4.648438 L 6.816406 -4.648438 L 6.816406 -10.597656 L 13.972656 -10.597656 C 15.398438 -10.597656 16.886719 -9.667969 16.886719 -7.621094 C 16.886719 -5.578125 15.335938 -4.648438 13.972656 -4.648438 Z M 13.972656 -4.648438 "/></g></g></g><g fill="#545454" fill-opacity="0.4"><g transform="translate(98.651354, 31.315609)"><g><path d="M 6.785156 -4.617188 L 6.785156 -24.785156 L 2.167969 -24.785156 L 2.167969 0 L 16.515625 0 L 16.515625 -4.617188 Z M 6.785156 -4.617188 "/></g></g></g><g fill="#545454" fill-opacity="0.4"><g transform="translate(117.334014, 31.315609)"><g><path d="M 13.757812 -25.097656 C 6.753906 -25.097656 1.085938 -19.425781 1.085938 -12.425781 C 1.085938 -5.421875 6.753906 0.246094 13.757812 0.246094 C 20.757812 0.246094 26.429688 -5.421875 26.429688 -12.425781 C 26.429688 -19.425781 20.757812 -25.097656 13.757812 -25.097656 Z M 13.757812 -20.355469 C 18.15625 -20.355469 21.253906 -16.792969 21.253906 -12.425781 C 21.253906 -8.054688 18.15625 -4.492188 13.757812 -4.492188 C 9.386719 -4.492188 6.289062 -8.054688 6.289062 -12.425781 C 6.289062 -16.792969 9.386719 -20.355469 13.757812 -20.355469 Z M 13.757812 -20.355469 "/></g></g></g><g fill="#545454" fill-opacity="0.4"><g transform="translate(144.846792, 31.315609)"><g><path d="M 27.359375 -14.46875 L 15.800781 -14.46875 L 15.800781 -9.730469 L 21.9375 -9.730469 C 20.976562 -6.660156 18.3125 -4.429688 14.839844 -4.429688 C 10.472656 -4.429688 7.375 -7.992188 7.375 -12.363281 C 7.375 -16.730469 10.472656 -20.292969 14.839844 -20.292969 C 16.390625 -20.292969 17.785156 -19.859375 18.898438 -19.085938 L 22.371094 -22.554688 C 20.261719 -24.105469 17.660156 -25.035156 14.839844 -25.035156 C 7.839844 -25.035156 2.167969 -19.363281 2.167969 -12.363281 C 2.167969 -5.359375 7.839844 0.308594 14.839844 0.308594 C 21.84375 0.308594 27.511719 -5.359375 27.511719 -12.363281 C 27.511719 -13.074219 27.449219 -13.789062 27.359375 -14.46875 Z M 27.359375 -14.46875 "/></g></g></g><g fill="#000000" fill-opacity="1"><g transform="translate(76.78844, 30.621585)"><g><path d="M 21.503906 -17.691406 C 21.503906 -21.625 19.179688 -24.785156 12.828125 -24.785156 L 2.167969 -24.785156 L 2.167969 0 L 12.828125 0 C 19.363281 0 21.503906 -4.214844 21.503906 -8.117188 C 21.503906 -9.945312 21.007812 -11.617188 19.828125 -12.890625 C 21.039062 -14.128906 21.503906 -15.832031 21.503906 -17.691406 Z M 6.816406 -20.167969 L 14.4375 -20.167969 C 15.894531 -20.167969 16.886719 -18.898438 16.886719 -17.691406 C 16.886719 -16.636719 16.050781 -15.210938 14.4375 -15.210938 L 6.816406 -15.210938 Z M 13.972656 -4.648438 L 6.816406 -4.648438 L 6.816406 -10.597656 L 13.972656 -10.597656 C 15.398438 -10.597656 16.886719 -9.667969 16.886719 -7.621094 C 16.886719 -5.578125 15.335938 -4.648438 13.972656 -4.648438 Z M 13.972656 -4.648438 "/></g></g></g><g fill="#000000" fill-opacity="1"><g transform="translate(100.45935, 30.621585)"><g><path d="M 6.785156 -4.617188 L 6.785156 -24.785156 L 2.167969 -24.785156 L 2.167969 0 L 16.515625 0 L 16.515625 -4.617188 Z M 6.785156 -4.617188 "/></g></g></g><g fill="#000000" fill-opacity="1"><g transform="translate(119.142009, 30.621585)"><g><path d="M 13.757812 -25.097656 C 6.753906 -25.097656 1.085938 -19.425781 1.085938 -12.425781 C 1.085938 -5.421875 6.753906 0.246094 13.757812 0.246094 C 20.757812 0.246094 26.429688 -5.421875 26.429688 -12.425781 C 26.429688 -19.425781 20.757812 -25.097656 13.757812 -25.097656 Z M 13.757812 -20.355469 C 18.15625 -20.355469 21.253906 -16.792969 21.253906 -12.425781 C 21.253906 -8.054688 18.15625 -4.492188 13.757812 -4.492188 C 9.386719 -4.492188 6.289062 -8.054688 6.289062 -12.425781 C 6.289062 -16.792969 9.386719 -20.355469 13.757812 -20.355469 Z M 13.757812 -20.355469 "/></g></g></g><g fill="#000000" fill-opacity="1"><g transform="translate(146.654787, 30.621585)"><g><path d="M 27.359375 -14.46875 L 15.800781 -14.46875 L 15.800781 -9.730469 L 21.9375 -9.730469 C 20.976562 -6.660156 18.3125 -4.429688 14.839844 -4.429688 C 10.472656 -4.429688 7.375 -7.992188 7.375 -12.363281 C 7.375 -16.730469 10.472656 -20.292969 14.839844 -20.292969 C 16.390625 -20.292969 17.785156 -19.859375 18.898438 -19.085938 L 22.371094 -22.554688 C 20.261719 -24.105469 17.660156 -25.035156 14.839844 -25.035156 C 7.839844 -25.035156 2.167969 -19.363281 2.167969 -12.363281 C 2.167969 -5.359375 7.839844 0.308594 14.839844 0.308594 C 21.84375 0.308594 27.511719 -5.359375 27.511719 -12.363281 C 27.511719 -13.074219 27.449219 -13.789062 27.359375 -14.46875 Z M 27.359375 -14.46875 "/></g></g></g><g fill="#545454" fill-opacity="0.302"><g transform="translate(3.659878, 30.153401)"><g><path d="M 22.566406 -1.75 L 22.566406 -18.960938 C 22.566406 -19.421875 22.714844 -19.839844 23.046875 -20.191406 C 23.128906 -20.296875 23.152344 -20.402344 23.109375 -20.527344 C 23.046875 -20.652344 22.964844 -20.714844 22.839844 -20.714844 L 18.441406 -20.714844 L 18.421875 -20.691406 L 18.421875 -20.714844 L 17.859375 -20.714844 C 17.710938 -20.714844 17.609375 -20.652344 17.566406 -20.527344 C 17.503906 -20.402344 17.503906 -20.296875 17.585938 -20.191406 C 17.671875 -20.066406 17.648438 -19.984375 17.566406 -19.921875 L 13.273438 -15.960938 C 13.128906 -15.835938 12.960938 -15.796875 12.792969 -15.796875 C 12.628906 -15.796875 12.480469 -15.835938 12.355469 -15.960938 L 8 -19.964844 C 7.917969 -20.027344 7.917969 -20.089844 8 -20.171875 C 8.085938 -20.277344 8.105469 -20.402344 8.0625 -20.527344 C 8 -20.652344 7.898438 -20.714844 7.75 -20.714844 L 2.835938 -20.714844 C 2.6875 -20.714844 2.582031 -20.652344 2.542969 -20.527344 C 2.480469 -20.402344 2.480469 -20.296875 2.5625 -20.191406 L 2.582031 -20.171875 C 2.898438 -19.816406 3.0625 -19.402344 3.0625 -18.941406 L 3.0625 -1.769531 C 3.0625 -1.292969 2.898438 -0.875 2.582031 -0.542969 L 2.5625 -0.519531 C 2.480469 -0.394531 2.480469 -0.292969 2.542969 -0.167969 C 2.582031 -0.0429688 2.6875 0 2.835938 0 L 7.4375 0 C 7.5625 0 7.667969 -0.0429688 7.730469 -0.167969 C 7.773438 -0.292969 7.773438 -0.394531 7.710938 -0.519531 L 7.667969 -0.5625 C 7.335938 -0.894531 7.1875 -1.3125 7.1875 -1.792969 L 7.1875 -14.421875 C 7.1875 -14.546875 7.230469 -14.628906 7.355469 -14.671875 C 7.480469 -14.710938 7.585938 -14.710938 7.6875 -14.628906 L 12.355469 -10.292969 C 12.480469 -10.167969 12.628906 -10.105469 12.816406 -10.105469 C 12.980469 -10.105469 13.148438 -10.167969 13.273438 -10.292969 L 17.941406 -14.628906 C 18.023438 -14.710938 18.128906 -14.710938 18.253906 -14.671875 C 18.378906 -14.628906 18.441406 -14.546875 18.441406 -14.421875 L 18.441406 -1.8125 C 18.441406 -1.355469 18.273438 -0.9375 17.941406 -0.582031 L 17.898438 -0.519531 C 17.816406 -0.394531 17.816406 -0.292969 17.878906 -0.167969 C 17.921875 -0.0429688 18.023438 0 18.171875 0 L 22.839844 0 C 22.964844 0 23.046875 -0.0429688 23.109375 -0.167969 C 23.152344 -0.292969 23.128906 -0.394531 23.046875 -0.519531 C 22.714844 -0.855469 22.566406 -1.269531 22.566406 -1.75 Z M 22.566406 -1.75 "/></g></g></g><g fill="#545454" fill-opacity="0.302"><g transform="translate(29.289254, 30.153401)"><g><path d="M 7.210938 -1.832031 L 7.210938 -18.878906 C 7.210938 -19.378906 7.375 -19.816406 7.710938 -20.191406 C 7.773438 -20.296875 7.773438 -20.402344 7.730469 -20.527344 C 7.667969 -20.652344 7.5625 -20.714844 7.4375 -20.714844 L 2.835938 -20.714844 C 2.6875 -20.714844 2.582031 -20.652344 2.542969 -20.527344 C 2.480469 -20.402344 2.480469 -20.296875 2.5625 -20.191406 C 2.898438 -19.816406 3.085938 -19.378906 3.085938 -18.878906 L 3.085938 -1.832031 C 3.085938 -1.332031 2.898438 -0.894531 2.5625 -0.519531 C 2.480469 -0.394531 2.480469 -0.292969 2.542969 -0.167969 C 2.582031 -0.0429688 2.6875 0 2.835938 0 L 7.4375 0 C 7.5625 0 7.667969 -0.0429688 7.730469 -0.167969 C 7.773438 -0.292969 7.773438 -0.394531 7.710938 -0.519531 C 7.542969 -0.6875 7.417969 -0.894531 7.335938 -1.125 C 7.25 -1.355469 7.210938 -1.582031 7.210938 -1.832031 Z M 7.210938 -1.832031 "/></g></g></g><g fill="#545454" fill-opacity="0.302"><g transform="translate(39.58268, 30.153401)"><g><path d="M 19.421875 -0.519531 L 19.402344 -0.542969 C 19.066406 -0.875 18.921875 -1.292969 18.921875 -1.792969 L 18.921875 -18.921875 C 18.921875 -19.402344 19.066406 -19.816406 19.402344 -20.171875 L 19.421875 -20.191406 C 19.484375 -20.296875 19.484375 -20.402344 19.441406 -20.527344 C 19.378906 -20.652344 19.277344 -20.714844 19.152344 -20.714844 L 14.546875 -20.714844 C 14.398438 -20.714844 14.296875 -20.652344 14.253906 -20.527344 C 14.191406 -20.402344 14.191406 -20.296875 14.273438 -20.191406 L 14.296875 -20.171875 C 14.609375 -19.816406 14.773438 -19.402344 14.773438 -18.921875 L 14.773438 -8.566406 C 14.773438 -8.480469 14.734375 -8.417969 14.648438 -8.398438 C 14.566406 -8.378906 14.503906 -8.398438 14.460938 -8.480469 L 7.9375 -19.441406 C 7.773438 -19.691406 7.8125 -19.941406 8.023438 -20.191406 C 8.085938 -20.296875 8.085938 -20.402344 8.042969 -20.527344 C 7.980469 -20.652344 7.875 -20.714844 7.75 -20.714844 L 7.1875 -20.714844 L 7.1875 -20.691406 L 7.1875 -20.714844 L 2.835938 -20.714844 C 2.6875 -20.714844 2.582031 -20.652344 2.542969 -20.527344 C 2.480469 -20.402344 2.480469 -20.296875 2.5625 -20.191406 C 2.898438 -19.816406 3.0625 -19.402344 3.0625 -18.941406 L 3.0625 -1.769531 C 3.0625 -1.292969 2.898438 -0.875 2.5625 -0.519531 C 2.480469 -0.394531 2.480469 -0.292969 2.542969 -0.167969 C 2.582031 -0.0429688 2.6875 0 2.835938 0 L 7.4375 0 C 7.5625 0 7.667969 -0.0429688 7.730469 -0.167969 C 7.773438 -0.292969 7.773438 -0.394531 7.710938 -0.519531 L 7.667969 -0.5625 C 7.335938 -0.894531 7.1875 -1.3125 7.1875 -1.8125 L 7.1875 -12.148438 C 7.1875 -12.230469 7.210938 -12.273438 7.292969 -12.292969 C 7.375 -12.316406 7.4375 -12.292969 7.5 -12.230469 L 14.046875 -1.25 C 14.171875 -0.980469 14.148438 -0.730469 13.960938 -0.519531 C 13.878906 -0.394531 13.878906 -0.292969 13.941406 -0.167969 C 13.984375 -0.0429688 14.085938 0 14.234375 0 L 19.152344 0 C 19.277344 0 19.378906 -0.0429688 19.441406 -0.167969 C 19.484375 -0.292969 19.484375 -0.394531 19.421875 -0.519531 Z M 19.421875 -0.519531 "/></g></g></g><g fill="#545454" fill-opacity="0.302"><g transform="translate(61.565598, 30.153401)"><g><path d="M 7.210938 -1.832031 L 7.210938 -18.878906 C 7.210938 -19.378906 7.375 -19.816406 7.710938 -20.191406 C 7.773438 -20.296875 7.773438 -20.402344 7.730469 -20.527344 C 7.667969 -20.652344 7.5625 -20.714844 7.4375 -20.714844 L 2.835938 -20.714844 C 2.6875 -20.714844 2.582031 -20.652344 2.542969 -20.527344 C 2.480469 -20.402344 2.480469 -20.296875 2.5625 -20.191406 C 2.898438 -19.816406 3.085938 -19.378906 3.085938 -18.878906 L 3.085938 -1.832031 C 3.085938 -1.332031 2.898438 -0.894531 2.5625 -0.519531 C 2.480469 -0.394531 2.480469 -0.292969 2.542969 -0.167969 C 2.582031 -0.0429688 2.6875 0 2.835938 0 L 7.4375 0 C 7.5625 0 7.667969 -0.0429688 7.730469 -0.167969 C 7.773438 -0.292969 7.773438 -0.394531 7.710938 -0.519531 C 7.542969 -0.6875 7.417969 -0.894531 7.335938 -1.125 C 7.25 -1.355469 7.210938 -1.582031 7.210938 -1.832031 Z M 7.210938 -1.832031 "/></g></g></g><g fill="#545454" fill-opacity="0.502"><g transform="translate(4.211363, 30.387493)"><g><path d="M 22.566406 -1.75 L 22.566406 -18.960938 C 22.566406 -19.421875 22.714844 -19.839844 23.046875 -20.191406 C 23.128906 -20.296875 23.152344 -20.402344 23.109375 -20.527344 C 23.046875 -20.652344 22.964844 -20.714844 22.839844 -20.714844 L 18.441406 -20.714844 L 18.421875 -20.691406 L 18.421875 -20.714844 L 17.859375 -20.714844 C 17.710938 -20.714844 17.609375 -20.652344 17.566406 -20.527344 C 17.503906 -20.402344 17.503906 -20.296875 17.585938 -20.191406 C 17.671875 -20.066406 17.648438 -19.984375 17.566406 -19.921875 L 13.273438 -15.960938 C 13.128906 -15.835938 12.960938 -15.796875 12.792969 -15.796875 C 12.628906 -15.796875 12.480469 -15.835938 12.355469 -15.960938 L 8 -19.964844 C 7.917969 -20.027344 7.917969 -20.089844 8 -20.171875 C 8.085938 -20.277344 8.105469 -20.402344 8.0625 -20.527344 C 8 -20.652344 7.898438 -20.714844 7.75 -20.714844 L 2.835938 -20.714844 C 2.6875 -20.714844 2.582031 -20.652344 2.542969 -20.527344 C 2.480469 -20.402344 2.480469 -20.296875 2.5625 -20.191406 L 2.582031 -20.171875 C 2.898438 -19.816406 3.0625 -19.402344 3.0625 -18.941406 L 3.0625 -1.769531 C 3.0625 -1.292969 2.898438 -0.875 2.582031 -0.542969 L 2.5625 -0.519531 C 2.480469 -0.394531 2.480469 -0.292969 2.542969 -0.167969 C 2.582031 -0.0429688 2.6875 0 2.835938 0 L 7.4375 0 C 7.5625 0 7.667969 -0.0429688 7.730469 -0.167969 C 7.773438 -0.292969 7.773438 -0.394531 7.710938 -0.519531 L 7.667969 -0.5625 C 7.335938 -0.894531 7.1875 -1.3125 7.1875 -1.792969 L 7.1875 -14.421875 C 7.1875 -14.546875 7.230469 -14.628906 7.355469 -14.671875 C 7.480469 -14.710938 7.585938 -14.710938 7.6875 -14.628906 L 12.355469 -10.292969 C 12.480469 -10.167969 12.628906 -10.105469 12.816406 -10.105469 C 12.980469 -10.105469 13.148438 -10.167969 13.273438 -10.292969 L 17.941406 -14.628906 C 18.023438 -14.710938 18.128906 -14.710938 18.253906 -14.671875 C 18.378906 -14.628906 18.441406 -14.546875 18.441406 -14.421875 L 18.441406 -1.8125 C 18.441406 -1.355469 18.273438 -0.9375 17.941406 -0.582031 L 17.898438 -0.519531 C 17.816406 -0.394531 17.816406 -0.292969 17.878906 -0.167969 C 17.921875 -0.0429688 18.023438 0 18.171875 0 L 22.839844 0 C 22.964844 0 23.046875 -0.0429688 23.109375 -0.167969 C 23.152344 -0.292969 23.128906 -0.394531 23.046875 -0.519531 C 22.714844 -0.855469 22.566406 -1.269531 22.566406 -1.75 Z M 22.566406 -1.75 "/></g></g></g><g fill="#545454" fill-opacity="0.502"><g transform="translate(29.840739, 30.387493)"><g><path d="M 7.210938 -1.832031 L 7.210938 -18.878906 C 7.210938 -19.378906 7.375 -19.816406 7.710938 -20.191406 C 7.773438 -20.296875 7.773438 -20.402344 7.730469 -20.527344 C 7.667969 -20.652344 7.5625 -20.714844 7.4375 -20.714844 L 2.835938 -20.714844 C 2.6875 -20.714844 2.582031 -20.652344 2.542969 -20.527344 C 2.480469 -20.402344 2.480469 -20.296875 2.5625 -20.191406 C 2.898438 -19.816406 3.085938 -19.378906 3.085938 -18.878906 L 3.085938 -1.832031 C 3.085938 -1.332031 2.898438 -0.894531 2.5625 -0.519531 C 2.480469 -0.394531 2.480469 -0.292969 2.542969 -0.167969 C 2.582031 -0.0429688 2.6875 0 2.835938 0 L 7.4375 0 C 7.5625 0 7.667969 -0.0429688 7.730469 -0.167969 C 7.773438 -0.292969 7.773438 -0.394531 7.710938 -0.519531 C 7.542969 -0.6875 7.417969 -0.894531 7.335938 -1.125 C 7.25 -1.355469 7.210938 -1.582031 7.210938 -1.832031 Z M 7.210938 -1.832031 "/></g></g></g><g fill="#545454" fill-opacity="0.502"><g transform="translate(40.134165, 30.387493)"><g><path d="M 19.421875 -0.519531 L 19.402344 -0.542969 C 19.066406 -0.875 18.921875 -1.292969 18.921875 -1.792969 L 18.921875 -18.921875 C 18.921875 -19.402344 19.066406 -19.816406 19.402344 -20.171875 L 19.421875 -20.191406 C 19.484375 -20.296875 19.484375 -20.402344 19.441406 -20.527344 C 19.378906 -20.652344 19.277344 -20.714844 19.152344 -20.714844 L 14.546875 -20.714844 C 14.398438 -20.714844 14.296875 -20.652344 14.253906 -20.527344 C 14.191406 -20.402344 14.191406 -20.296875 14.273438 -20.191406 L 14.296875 -20.171875 C 14.609375 -19.816406 14.773438 -19.402344 14.773438 -18.921875 L 14.773438 -8.566406 C 14.773438 -8.480469 14.734375 -8.417969 14.648438 -8.398438 C 14.566406 -8.378906 14.503906 -8.398438 14.460938 -8.480469 L 7.9375 -19.441406 C 7.773438 -19.691406 7.8125 -19.941406 8.023438 -20.191406 C 8.085938 -20.296875 8.085938 -20.402344 8.042969 -20.527344 C 7.980469 -20.652344 7.875 -20.714844 7.75 -20.714844 L 7.1875 -20.714844 L 7.1875 -20.691406 L 7.1875 -20.714844 L 2.835938 -20.714844 C 2.6875 -20.714844 2.582031 -20.652344 2.542969 -20.527344 C 2.480469 -20.402344 2.480469 -20.296875 2.5625 -20.191406 C 2.898438 -19.816406 3.0625 -19.402344 3.0625 -18.941406 L 3.0625 -1.769531 C 3.0625 -1.292969 2.898438 -0.875 2.5625 -0.519531 C 2.480469 -0.394531 2.480469 -0.292969 2.542969 -0.167969 C 2.582031 -0.0429688 2.6875 0 2.835938 0 L 7.4375 0 C 7.5625 0 7.667969 -0.0429688 7.730469 -0.167969 C 7.773438 -0.292969 7.773438 -0.394531 7.710938 -0.519531 L 7.667969 -0.5625 C 7.335938 -0.894531 7.1875 -1.3125 7.1875 -1.8125 L 7.1875 -12.148438 C 7.1875 -12.230469 7.210938 -12.273438 7.292969 -12.292969 C 7.375 -12.316406 7.4375 -12.292969 7.5 -12.230469 L 14.046875 -1.25 C 14.171875 -0.980469 14.148438 -0.730469 13.960938 -0.519531 C 13.878906 -0.394531 13.878906 -0.292969 13.941406 -0.167969 C 13.984375 -0.0429688 14.085938 0 14.234375 0 L 19.152344 0 C 19.277344 0 19.378906 -0.0429688 19.441406 -0.167969 C 19.484375 -0.292969 19.484375 -0.394531 19.421875 -0.519531 Z M 19.421875 -0.519531 "/></g></g></g><g fill="#545454" fill-opacity="0.502"><g transform="translate(62.117083, 30.387493)"><g><path d="M 7.210938 -1.832031 L 7.210938 -18.878906 C 7.210938 -19.378906 7.375 -19.816406 7.710938 -20.191406 C 7.773438 -20.296875 7.773438 -20.402344 7.730469 -20.527344 C 7.667969 -20.652344 7.5625 -20.714844 7.4375 -20.714844 L 2.835938 -20.714844 C 2.6875 -20.714844 2.582031 -20.652344 2.542969 -20.527344 C 2.480469 -20.402344 2.480469 -20.296875 2.5625 -20.191406 C 2.898438 -19.816406 3.085938 -19.378906 3.085938 -18.878906 L 3.085938 -1.832031 C 3.085938 -1.332031 2.898438 -0.894531 2.5625 -0.519531 C 2.480469 -0.394531 2.480469 -0.292969 2.542969 -0.167969 C 2.582031 -0.0429688 2.6875 0 2.835938 0 L 7.4375 0 C 7.5625 0 7.667969 -0.0429688 7.730469 -0.167969 C 7.773438 -0.292969 7.773438 -0.394531 7.710938 -0.519531 C 7.542969 -0.6875 7.417969 -0.894531 7.335938 -1.125 C 7.25 -1.355469 7.210938 -1.582031 7.210938 -1.832031 Z M 7.210938 -1.832031 "/></g></g></g><g fill="#000000" fill-opacity="1"><g transform="translate(4.76285, 30.621585)"><g><path d="M 22.566406 -1.75 L 22.566406 -18.960938 C 22.566406 -19.421875 22.714844 -19.839844 23.046875 -20.191406 C 23.128906 -20.296875 23.152344 -20.402344 23.109375 -20.527344 C 23.046875 -20.652344 22.964844 -20.714844 22.839844 -20.714844 L 18.441406 -20.714844 L 18.421875 -20.691406 L 18.421875 -20.714844 L 17.859375 -20.714844 C 17.710938 -20.714844 17.609375 -20.652344 17.566406 -20.527344 C 17.503906 -20.402344 17.503906 -20.296875 17.585938 -20.191406 C 17.671875 -20.066406 17.648438 -19.984375 17.566406 -19.921875 L 13.273438 -15.960938 C 13.128906 -15.835938 12.960938 -15.796875 12.792969 -15.796875 C 12.628906 -15.796875 12.480469 -15.835938 12.355469 -15.960938 L 8 -19.964844 C 7.917969 -20.027344 7.917969 -20.089844 8 -20.171875 C 8.085938 -20.277344 8.105469 -20.402344 8.0625 -20.527344 C 8 -20.652344 7.898438 -20.714844 7.75 -20.714844 L 2.835938 -20.714844 C 2.6875 -20.714844 2.582031 -20.652344 2.542969 -20.527344 C 2.480469 -20.402344 2.480469 -20.296875 2.5625 -20.191406 L 2.582031 -20.171875 C 2.898438 -19.816406 3.0625 -19.402344 3.0625 -18.941406 L 3.0625 -1.769531 C 3.0625 -1.292969 2.898438 -0.875 2.582031 -0.542969 L 2.5625 -0.519531 C 2.480469 -0.394531 2.480469 -0.292969 2.542969 -0.167969 C 2.582031 -0.0429688 2.6875 0 2.835938 0 L 7.4375 0 C 7.5625 0 7.667969 -0.0429688 7.730469 -0.167969 C 7.773438 -0.292969 7.773438 -0.394531 7.710938 -0.519531 L 7.667969 -0.5625 C 7.335938 -0.894531 7.1875 -1.3125 7.1875 -1.792969 L 7.1875 -14.421875 C 7.1875 -14.546875 7.230469 -14.628906 7.355469 -14.671875 C 7.480469 -14.710938 7.585938 -14.710938 7.6875 -14.628906 L 12.355469 -10.292969 C 12.480469 -10.167969 12.628906 -10.105469 12.816406 -10.105469 C 12.980469 -10.105469 13.148438 -10.167969 13.273438 -10.292969 L 17.941406 -14.628906 C 18.023438 -14.710938 18.128906 -14.710938 18.253906 -14.671875 C 18.378906 -14.628906 18.441406 -14.546875 18.441406 -14.421875 L 18.441406 -1.8125 C 18.441406 -1.355469 18.273438 -0.9375 17.941406 -0.582031 L 17.898438 -0.519531 C 17.816406 -0.394531 17.816406 -0.292969 17.878906 -0.167969 C 17.921875 -0.0429688 18.023438 0 18.171875 0 L 22.839844 0 C 22.964844 0 23.046875 -0.0429688 23.109375 -0.167969 C 23.152344 -0.292969 23.128906 -0.394531 23.046875 -0.519531 C 22.714844 -0.855469 22.566406 -1.269531 22.566406 -1.75 Z M 22.566406 -1.75 "/></g></g></g><g fill="#000000" fill-opacity="1"><g transform="translate(30.392225, 30.621585)"><g><path d="M 7.210938 -1.832031 L 7.210938 -18.878906 C 7.210938 -19.378906 7.375 -19.816406 7.710938 -20.191406 C 7.773438 -20.296875 7.773438 -20.402344 7.730469 -20.527344 C 7.667969 -20.652344 7.5625 -20.714844 7.4375 -20.714844 L 2.835938 -20.714844 C 2.6875 -20.714844 2.582031 -20.652344 2.542969 -20.527344 C 2.480469 -20.402344 2.480469 -20.296875 2.5625 -20.191406 C 2.898438 -19.816406 3.085938 -19.378906 3.085938 -18.878906 L 3.085938 -1.832031 C 3.085938 -1.332031 2.898438 -0.894531 2.5625 -0.519531 C 2.480469 -0.394531 2.480469 -0.292969 2.542969 -0.167969 C 2.582031 -0.0429688 2.6875 0 2.835938 0 L 7.4375 0 C 7.5625 0 7.667969 -0.0429688 7.730469 -0.167969 C 7.773438 -0.292969 7.773438 -0.394531 7.710938 -0.519531 C 7.542969 -0.6875 7.417969 -0.894531 7.335938 -1.125 C 7.25 -1.355469 7.210938 -1.582031 7.210938 -1.832031 Z M 7.210938 -1.832031 "/></g></g></g><g fill="#000000" fill-opacity="1"><g transform="translate(40.685651, 30.621585)"><g><path d="M 19.421875 -0.519531 L 19.402344 -0.542969 C 19.066406 -0.875 18.921875 -1.292969 18.921875 -1.792969 L 18.921875 -18.921875 C 18.921875 -19.402344 19.066406 -19.816406 19.402344 -20.171875 L 19.421875 -20.191406 C 19.484375 -20.296875 19.484375 -20.402344 19.441406 -20.527344 C 19.378906 -20.652344 19.277344 -20.714844 19.152344 -20.714844 L 14.546875 -20.714844 C 14.398438 -20.714844 14.296875 -20.652344 14.253906 -20.527344 C 14.191406 -20.402344 14.191406 -20.296875 14.273438 -20.191406 L 14.296875 -20.171875 C 14.609375 -19.816406 14.773438 -19.402344 14.773438 -18.921875 L 14.773438 -8.566406 C 14.773438 -8.480469 14.734375 -8.417969 14.648438 -8.398438 C 14.566406 -8.378906 14.503906 -8.398438 14.460938 -8.480469 L 7.9375 -19.441406 C 7.773438 -19.691406 7.8125 -19.941406 8.023438 -20.191406 C 8.085938 -20.296875 8.085938 -20.402344 8.042969 -20.527344 C 7.980469 -20.652344 7.875 -20.714844 7.75 -20.714844 L 7.1875 -20.714844 L 7.1875 -20.691406 L 7.1875 -20.714844 L 2.835938 -20.714844 C 2.6875 -20.714844 2.582031 -20.652344 2.542969 -20.527344 C 2.480469 -20.402344 2.480469 -20.296875 2.5625 -20.191406 C 2.898438 -19.816406 3.0625 -19.402344 3.0625 -18.941406 L 3.0625 -1.769531 C 3.0625 -1.292969 2.898438 -0.875 2.5625 -0.519531 C 2.480469 -0.394531 2.480469 -0.292969 2.542969 -0.167969 C 2.582031 -0.0429688 2.6875 0 2.835938 0 L 7.4375 0 C 7.5625 0 7.667969 -0.0429688 7.730469 -0.167969 C 7.773438 -0.292969 7.773438 -0.394531 7.710938 -0.519531 L 7.667969 -0.5625 C 7.335938 -0.894531 7.1875 -1.3125 7.1875 -1.8125 L 7.1875 -12.148438 C 7.1875 -12.230469 7.210938 -12.273438 7.292969 -12.292969 C 7.375 -12.316406 7.4375 -12.292969 7.5 -12.230469 L 14.046875 -1.25 C 14.171875 -0.980469 14.148438 -0.730469 13.960938 -0.519531 C 13.878906 -0.394531 13.878906 -0.292969 13.941406 -0.167969 C 13.984375 -0.0429688 14.085938 0 14.234375 0 L 19.152344 0 C 19.277344 0 19.378906 -0.0429688 19.441406 -0.167969 C 19.484375 -0.292969 19.484375 -0.394531 19.421875 -0.519531 Z M 19.421875 -0.519531 "/></g></g></g><g fill="#000000" fill-opacity="1"><g transform="translate(62.66857, 30.621585)"><g><path d="M 7.210938 -1.832031 L 7.210938 -18.878906 C 7.210938 -19.378906 7.375 -19.816406 7.710938 -20.191406 C 7.773438 -20.296875 7.773438 -20.402344 7.730469 -20.527344 C 7.667969 -20.652344 7.5625 -20.714844 7.4375 -20.714844 L 2.835938 -20.714844 C 2.6875 -20.714844 2.582031 -20.652344 2.542969 -20.527344 C 2.480469 -20.402344 2.480469 -20.296875 2.5625 -20.191406 C 2.898438 -19.816406 3.085938 -19.378906 3.085938 -18.878906 L 3.085938 -1.832031 C 3.085938 -1.332031 2.898438 -0.894531 2.5625 -0.519531 C 2.480469 -0.394531 2.480469 -0.292969 2.542969 -0.167969 C 2.582031 -0.0429688 2.6875 0 2.835938 0 L 7.4375 0 C 7.5625 0 7.667969 -0.0429688 7.730469 -0.167969 C 7.773438 -0.292969 7.773438 -0.394531 7.710938 -0.519531 C 7.542969 -0.6875 7.417969 -0.894531 7.335938 -1.125 C 7.25 -1.355469 7.210938 -1.582031 7.210938 -1.832031 Z M 7.210938 -1.832031 "/></g></g></g></svg>