<svg xmlns="http://www.w3.org/2000/svg" xmlns:xlink="http://www.w3.org/1999/xlink" width="250" zoomAndPan="magnify" viewBox="0 0 187.5 37.5" height="50" preserveAspectRatio="xMidYMid meet" version="1.0"><defs><g/></defs><g fill="#ffffff" fill-opacity="0.4"><g transform="translate(79.824488, 31.696235)"><g><path d="M 21.503906 -17.691406 C 21.503906 -21.628906 19.179688 -24.789062 12.828125 -24.789062 L 2.167969 -24.789062 L 2.167969 0 L 12.828125 0 C 19.367188 0 21.503906 -4.214844 21.503906 -8.117188 C 21.503906 -9.945312 21.007812 -11.621094 19.832031 -12.890625 C 21.039062 -14.128906 21.503906 -15.832031 21.503906 -17.691406 Z M 6.816406 -20.171875 L 14.4375 -20.171875 C 15.894531 -20.171875 16.886719 -18.902344 16.886719 -17.691406 C 16.886719 -16.640625 16.050781 -15.214844 14.4375 -15.214844 L 6.816406 -15.214844 Z M 13.972656 -4.648438 L 6.816406 -4.648438 L 6.816406 -10.597656 L 13.972656 -10.597656 C 15.398438 -10.597656 16.886719 -9.667969 16.886719 -7.621094 C 16.886719 -5.578125 15.335938 -4.648438 13.972656 -4.648438 Z M 13.972656 -4.648438 "/></g></g></g><g fill="#ffffff" fill-opacity="0.4"><g transform="translate(103.495115, 31.696235)"><g><path d="M 6.785156 -4.617188 L 6.785156 -24.789062 L 2.167969 -24.789062 L 2.167969 0 L 16.515625 0 L 16.515625 -4.617188 Z M 6.785156 -4.617188 "/></g></g></g><g fill="#ffffff" fill-opacity="0.4"><g transform="translate(122.177559, 31.696235)"><g><path d="M 13.757812 -25.097656 C 6.753906 -25.097656 1.085938 -19.425781 1.085938 -12.425781 C 1.085938 -5.421875 6.753906 0.246094 13.757812 0.246094 C 20.761719 0.246094 26.429688 -5.421875 26.429688 -12.425781 C 26.429688 -19.425781 20.761719 -25.097656 13.757812 -25.097656 Z M 13.757812 -20.355469 C 18.15625 -20.355469 21.253906 -16.792969 21.253906 -12.425781 C 21.253906 -8.054688 18.15625 -4.492188 13.757812 -4.492188 C 9.386719 -4.492188 6.289062 -8.054688 6.289062 -12.425781 C 6.289062 -16.792969 9.386719 -20.355469 13.757812 -20.355469 Z M 13.757812 -20.355469 "/></g></g></g><g fill="#ffffff" fill-opacity="0.4"><g transform="translate(149.690012, 31.696235)"><g><path d="M 27.359375 -14.46875 L 15.800781 -14.46875 L 15.800781 -9.730469 L 21.9375 -9.730469 C 20.976562 -6.660156 18.3125 -4.429688 14.839844 -4.429688 C 10.472656 -4.429688 7.375 -7.992188 7.375 -12.363281 C 7.375 -16.730469 10.472656 -20.296875 14.839844 -20.296875 C 16.390625 -20.296875 17.785156 -19.859375 18.902344 -19.085938 L 22.371094 -22.558594 C 20.265625 -24.105469 17.660156 -25.035156 14.839844 -25.035156 C 7.839844 -25.035156 2.167969 -19.367188 2.167969 -12.363281 C 2.167969 -5.359375 7.839844 0.308594 14.839844 0.308594 C 21.84375 0.308594 27.515625 -5.359375 27.515625 -12.363281 C 27.515625 -13.074219 27.453125 -13.789062 27.359375 -14.46875 Z M 27.359375 -14.46875 "/></g></g></g><g fill="#ffffff" fill-opacity="1"><g transform="translate(81.632484, 31.00221)"><g><path d="M 21.503906 -17.691406 C 21.503906 -21.628906 19.179688 -24.789062 12.828125 -24.789062 L 2.167969 -24.789062 L 2.167969 0 L 12.828125 0 C 19.367188 0 21.503906 -4.214844 21.503906 -8.117188 C 21.503906 -9.945312 21.007812 -11.621094 19.832031 -12.890625 C 21.039062 -14.128906 21.503906 -15.832031 21.503906 -17.691406 Z M 6.816406 -20.171875 L 14.4375 -20.171875 C 15.894531 -20.171875 16.886719 -18.902344 16.886719 -17.691406 C 16.886719 -16.640625 16.050781 -15.214844 14.4375 -15.214844 L 6.816406 -15.214844 Z M 13.972656 -4.648438 L 6.816406 -4.648438 L 6.816406 -10.597656 L 13.972656 -10.597656 C 15.398438 -10.597656 16.886719 -9.667969 16.886719 -7.621094 C 16.886719 -5.578125 15.335938 -4.648438 13.972656 -4.648438 Z M 13.972656 -4.648438 "/></g></g></g><g fill="#ffffff" fill-opacity="1"><g transform="translate(105.303111, 31.00221)"><g><path d="M 6.785156 -4.617188 L 6.785156 -24.789062 L 2.167969 -24.789062 L 2.167969 0 L 16.515625 0 L 16.515625 -4.617188 Z M 6.785156 -4.617188 "/></g></g></g><g fill="#ffffff" fill-opacity="1"><g transform="translate(123.985555, 31.00221)"><g><path d="M 13.757812 -25.097656 C 6.753906 -25.097656 1.085938 -19.425781 1.085938 -12.425781 C 1.085938 -5.421875 6.753906 0.246094 13.757812 0.246094 C 20.761719 0.246094 26.429688 -5.421875 26.429688 -12.425781 C 26.429688 -19.425781 20.761719 -25.097656 13.757812 -25.097656 Z M 13.757812 -20.355469 C 18.15625 -20.355469 21.253906 -16.792969 21.253906 -12.425781 C 21.253906 -8.054688 18.15625 -4.492188 13.757812 -4.492188 C 9.386719 -4.492188 6.289062 -8.054688 6.289062 -12.425781 C 6.289062 -16.792969 9.386719 -20.355469 13.757812 -20.355469 Z M 13.757812 -20.355469 "/></g></g></g><g fill="#ffffff" fill-opacity="1"><g transform="translate(151.498008, 31.00221)"><g><path d="M 27.359375 -14.46875 L 15.800781 -14.46875 L 15.800781 -9.730469 L 21.9375 -9.730469 C 20.976562 -6.660156 18.3125 -4.429688 14.839844 -4.429688 C 10.472656 -4.429688 7.375 -7.992188 7.375 -12.363281 C 7.375 -16.730469 10.472656 -20.296875 14.839844 -20.296875 C 16.390625 -20.296875 17.785156 -19.859375 18.902344 -19.085938 L 22.371094 -22.558594 C 20.265625 -24.105469 17.660156 -25.035156 14.839844 -25.035156 C 7.839844 -25.035156 2.167969 -19.367188 2.167969 -12.363281 C 2.167969 -5.359375 7.839844 0.308594 14.839844 0.308594 C 21.84375 0.308594 27.515625 -5.359375 27.515625 -12.363281 C 27.515625 -13.074219 27.453125 -13.789062 27.359375 -14.46875 Z M 27.359375 -14.46875 "/></g></g></g><g fill="#ffc1b2" fill-opacity="0.302"><g transform="translate(5.276696, 28.675906)"><g><path d="M 22.566406 -1.75 L 22.566406 -18.960938 C 22.566406 -19.421875 22.710938 -19.835938 23.046875 -20.191406 C 23.128906 -20.296875 23.148438 -20.398438 23.109375 -20.523438 C 23.046875 -20.648438 22.960938 -20.710938 22.835938 -20.710938 L 18.441406 -20.710938 L 18.421875 -20.691406 L 18.421875 -20.710938 L 17.859375 -20.710938 C 17.710938 -20.710938 17.609375 -20.648438 17.566406 -20.523438 C 17.503906 -20.398438 17.503906 -20.296875 17.585938 -20.191406 C 17.671875 -20.066406 17.648438 -19.984375 17.566406 -19.921875 L 13.273438 -15.960938 C 13.128906 -15.835938 12.960938 -15.792969 12.792969 -15.792969 C 12.628906 -15.792969 12.480469 -15.835938 12.355469 -15.960938 L 8 -19.960938 C 7.917969 -20.023438 7.917969 -20.085938 8 -20.171875 C 8.085938 -20.273438 8.105469 -20.398438 8.0625 -20.523438 C 8 -20.648438 7.898438 -20.710938 7.75 -20.710938 L 2.832031 -20.710938 C 2.6875 -20.710938 2.582031 -20.648438 2.542969 -20.523438 C 2.480469 -20.398438 2.480469 -20.296875 2.5625 -20.191406 L 2.582031 -20.171875 C 2.894531 -19.816406 3.0625 -19.398438 3.0625 -18.941406 L 3.0625 -1.769531 C 3.0625 -1.292969 2.894531 -0.875 2.582031 -0.542969 L 2.5625 -0.519531 C 2.480469 -0.394531 2.480469 -0.292969 2.542969 -0.167969 C 2.582031 -0.0429688 2.6875 0 2.832031 0 L 7.4375 0 C 7.5625 0 7.667969 -0.0429688 7.730469 -0.167969 C 7.773438 -0.292969 7.773438 -0.394531 7.710938 -0.519531 L 7.667969 -0.5625 C 7.335938 -0.894531 7.1875 -1.3125 7.1875 -1.792969 L 7.1875 -14.417969 C 7.1875 -14.542969 7.230469 -14.628906 7.355469 -14.667969 C 7.480469 -14.710938 7.585938 -14.710938 7.6875 -14.628906 L 12.355469 -10.292969 C 12.480469 -10.167969 12.628906 -10.105469 12.816406 -10.105469 C 12.980469 -10.105469 13.148438 -10.167969 13.273438 -10.292969 L 17.941406 -14.628906 C 18.023438 -14.710938 18.128906 -14.710938 18.253906 -14.667969 C 18.378906 -14.628906 18.441406 -14.542969 18.441406 -14.417969 L 18.441406 -1.8125 C 18.441406 -1.355469 18.273438 -0.9375 17.941406 -0.582031 L 17.898438 -0.519531 C 17.816406 -0.394531 17.816406 -0.292969 17.878906 -0.167969 C 17.921875 -0.0429688 18.023438 0 18.171875 0 L 22.835938 0 C 22.960938 0 23.046875 -0.0429688 23.109375 -0.167969 C 23.148438 -0.292969 23.128906 -0.394531 23.046875 -0.519531 C 22.710938 -0.855469 22.566406 -1.269531 22.566406 -1.75 Z M 22.566406 -1.75 "/></g></g></g><g fill="#ffc1b2" fill-opacity="0.302"><g transform="translate(30.906458, 28.675906)"><g><path d="M 7.210938 -1.832031 L 7.210938 -18.878906 C 7.210938 -19.378906 7.375 -19.816406 7.710938 -20.191406 C 7.773438 -20.296875 7.773438 -20.398438 7.730469 -20.523438 C 7.667969 -20.648438 7.5625 -20.710938 7.4375 -20.710938 L 2.832031 -20.710938 C 2.6875 -20.710938 2.582031 -20.648438 2.542969 -20.523438 C 2.480469 -20.398438 2.480469 -20.296875 2.5625 -20.191406 C 2.894531 -19.816406 3.082031 -19.378906 3.082031 -18.878906 L 3.082031 -1.832031 C 3.082031 -1.332031 2.894531 -0.894531 2.5625 -0.519531 C 2.480469 -0.394531 2.480469 -0.292969 2.542969 -0.167969 C 2.582031 -0.0429688 2.6875 0 2.832031 0 L 7.4375 0 C 7.5625 0 7.667969 -0.0429688 7.730469 -0.167969 C 7.773438 -0.292969 7.773438 -0.394531 7.710938 -0.519531 C 7.542969 -0.6875 7.417969 -0.894531 7.335938 -1.125 C 7.25 -1.355469 7.210938 -1.582031 7.210938 -1.832031 Z M 7.210938 -1.832031 "/></g></g></g><g fill="#ffc1b2" fill-opacity="0.302"><g transform="translate(41.200037, 28.675906)"><g><path d="M 19.421875 -0.519531 L 19.398438 -0.542969 C 19.066406 -0.875 18.921875 -1.292969 18.921875 -1.792969 L 18.921875 -18.921875 C 18.921875 -19.398438 19.066406 -19.816406 19.398438 -20.171875 L 19.421875 -20.191406 C 19.484375 -20.296875 19.484375 -20.398438 19.441406 -20.523438 C 19.378906 -20.648438 19.273438 -20.710938 19.148438 -20.710938 L 14.542969 -20.710938 C 14.398438 -20.710938 14.292969 -20.648438 14.253906 -20.523438 C 14.191406 -20.398438 14.191406 -20.296875 14.273438 -20.191406 L 14.292969 -20.171875 C 14.605469 -19.816406 14.773438 -19.398438 14.773438 -18.921875 L 14.773438 -8.5625 C 14.773438 -8.480469 14.730469 -8.417969 14.648438 -8.398438 C 14.566406 -8.375 14.503906 -8.398438 14.460938 -8.480469 L 7.9375 -19.441406 C 7.773438 -19.691406 7.8125 -19.941406 8.023438 -20.191406 C 8.085938 -20.296875 8.085938 -20.398438 8.042969 -20.523438 C 7.980469 -20.648438 7.875 -20.710938 7.75 -20.710938 L 7.1875 -20.710938 L 7.1875 -20.691406 L 7.1875 -20.710938 L 2.832031 -20.710938 C 2.6875 -20.710938 2.582031 -20.648438 2.542969 -20.523438 C 2.480469 -20.398438 2.480469 -20.296875 2.5625 -20.191406 C 2.894531 -19.816406 3.0625 -19.398438 3.0625 -18.941406 L 3.0625 -1.769531 C 3.0625 -1.292969 2.894531 -0.875 2.5625 -0.519531 C 2.480469 -0.394531 2.480469 -0.292969 2.542969 -0.167969 C 2.582031 -0.0429688 2.6875 0 2.832031 0 L 7.4375 0 C 7.5625 0 7.667969 -0.0429688 7.730469 -0.167969 C 7.773438 -0.292969 7.773438 -0.394531 7.710938 -0.519531 L 7.667969 -0.5625 C 7.335938 -0.894531 7.1875 -1.3125 7.1875 -1.8125 L 7.1875 -12.148438 C 7.1875 -12.230469 7.210938 -12.273438 7.292969 -12.292969 C 7.375 -12.316406 7.4375 -12.292969 7.5 -12.230469 L 14.042969 -1.25 C 14.167969 -0.980469 14.148438 -0.730469 13.960938 -0.519531 C 13.878906 -0.394531 13.878906 -0.292969 13.941406 -0.167969 C 13.980469 -0.0429688 14.085938 0 14.230469 0 L 19.148438 0 C 19.273438 0 19.378906 -0.0429688 19.441406 -0.167969 C 19.484375 -0.292969 19.484375 -0.394531 19.421875 -0.519531 Z M 19.421875 -0.519531 "/></g></g></g><g fill="#ffc1b2" fill-opacity="0.302"><g transform="translate(63.183284, 28.675906)"><g><path d="M 7.210938 -1.832031 L 7.210938 -18.878906 C 7.210938 -19.378906 7.375 -19.816406 7.710938 -20.191406 C 7.773438 -20.296875 7.773438 -20.398438 7.730469 -20.523438 C 7.667969 -20.648438 7.5625 -20.710938 7.4375 -20.710938 L 2.832031 -20.710938 C 2.6875 -20.710938 2.582031 -20.648438 2.542969 -20.523438 C 2.480469 -20.398438 2.480469 -20.296875 2.5625 -20.191406 C 2.894531 -19.816406 3.082031 -19.378906 3.082031 -18.878906 L 3.082031 -1.832031 C 3.082031 -1.332031 2.894531 -0.894531 2.5625 -0.519531 C 2.480469 -0.394531 2.480469 -0.292969 2.542969 -0.167969 C 2.582031 -0.0429688 2.6875 0 2.832031 0 L 7.4375 0 C 7.5625 0 7.667969 -0.0429688 7.730469 -0.167969 C 7.773438 -0.292969 7.773438 -0.394531 7.710938 -0.519531 C 7.542969 -0.6875 7.417969 -0.894531 7.335938 -1.125 C 7.25 -1.355469 7.210938 -1.582031 7.210938 -1.832031 Z M 7.210938 -1.832031 "/></g></g></g><g fill="#ffc1b2" fill-opacity="0.502"><g transform="translate(5.828181, 28.909997)"><g><path d="M 22.566406 -1.75 L 22.566406 -18.960938 C 22.566406 -19.421875 22.710938 -19.835938 23.046875 -20.191406 C 23.128906 -20.296875 23.148438 -20.398438 23.109375 -20.523438 C 23.046875 -20.648438 22.960938 -20.710938 22.835938 -20.710938 L 18.441406 -20.710938 L 18.421875 -20.691406 L 18.421875 -20.710938 L 17.859375 -20.710938 C 17.710938 -20.710938 17.609375 -20.648438 17.566406 -20.523438 C 17.503906 -20.398438 17.503906 -20.296875 17.585938 -20.191406 C 17.671875 -20.066406 17.648438 -19.984375 17.566406 -19.921875 L 13.273438 -15.960938 C 13.128906 -15.835938 12.960938 -15.792969 12.792969 -15.792969 C 12.628906 -15.792969 12.480469 -15.835938 12.355469 -15.960938 L 8 -19.960938 C 7.917969 -20.023438 7.917969 -20.085938 8 -20.171875 C 8.085938 -20.273438 8.105469 -20.398438 8.0625 -20.523438 C 8 -20.648438 7.898438 -20.710938 7.75 -20.710938 L 2.832031 -20.710938 C 2.6875 -20.710938 2.582031 -20.648438 2.542969 -20.523438 C 2.480469 -20.398438 2.480469 -20.296875 2.5625 -20.191406 L 2.582031 -20.171875 C 2.894531 -19.816406 3.0625 -19.398438 3.0625 -18.941406 L 3.0625 -1.769531 C 3.0625 -1.292969 2.894531 -0.875 2.582031 -0.542969 L 2.5625 -0.519531 C 2.480469 -0.394531 2.480469 -0.292969 2.542969 -0.167969 C 2.582031 -0.0429688 2.6875 0 2.832031 0 L 7.4375 0 C 7.5625 0 7.667969 -0.0429688 7.730469 -0.167969 C 7.773438 -0.292969 7.773438 -0.394531 7.710938 -0.519531 L 7.667969 -0.5625 C 7.335938 -0.894531 7.1875 -1.3125 7.1875 -1.792969 L 7.1875 -14.417969 C 7.1875 -14.542969 7.230469 -14.628906 7.355469 -14.667969 C 7.480469 -14.710938 7.585938 -14.710938 7.6875 -14.628906 L 12.355469 -10.292969 C 12.480469 -10.167969 12.628906 -10.105469 12.816406 -10.105469 C 12.980469 -10.105469 13.148438 -10.167969 13.273438 -10.292969 L 17.941406 -14.628906 C 18.023438 -14.710938 18.128906 -14.710938 18.253906 -14.667969 C 18.378906 -14.628906 18.441406 -14.542969 18.441406 -14.417969 L 18.441406 -1.8125 C 18.441406 -1.355469 18.273438 -0.9375 17.941406 -0.582031 L 17.898438 -0.519531 C 17.816406 -0.394531 17.816406 -0.292969 17.878906 -0.167969 C 17.921875 -0.0429688 18.023438 0 18.171875 0 L 22.835938 0 C 22.960938 0 23.046875 -0.0429688 23.109375 -0.167969 C 23.148438 -0.292969 23.128906 -0.394531 23.046875 -0.519531 C 22.710938 -0.855469 22.566406 -1.269531 22.566406 -1.75 Z M 22.566406 -1.75 "/></g></g></g><g fill="#ffc1b2" fill-opacity="0.502"><g transform="translate(31.457943, 28.909997)"><g><path d="M 7.210938 -1.832031 L 7.210938 -18.878906 C 7.210938 -19.378906 7.375 -19.816406 7.710938 -20.191406 C 7.773438 -20.296875 7.773438 -20.398438 7.730469 -20.523438 C 7.667969 -20.648438 7.5625 -20.710938 7.4375 -20.710938 L 2.832031 -20.710938 C 2.6875 -20.710938 2.582031 -20.648438 2.542969 -20.523438 C 2.480469 -20.398438 2.480469 -20.296875 2.5625 -20.191406 C 2.894531 -19.816406 3.082031 -19.378906 3.082031 -18.878906 L 3.082031 -1.832031 C 3.082031 -1.332031 2.894531 -0.894531 2.5625 -0.519531 C 2.480469 -0.394531 2.480469 -0.292969 2.542969 -0.167969 C 2.582031 -0.0429688 2.6875 0 2.832031 0 L 7.4375 0 C 7.5625 0 7.667969 -0.0429688 7.730469 -0.167969 C 7.773438 -0.292969 7.773438 -0.394531 7.710938 -0.519531 C 7.542969 -0.6875 7.417969 -0.894531 7.335938 -1.125 C 7.25 -1.355469 7.210938 -1.582031 7.210938 -1.832031 Z M 7.210938 -1.832031 "/></g></g></g><g fill="#ffc1b2" fill-opacity="0.502"><g transform="translate(41.751523, 28.909997)"><g><path d="M 19.421875 -0.519531 L 19.398438 -0.542969 C 19.066406 -0.875 18.921875 -1.292969 18.921875 -1.792969 L 18.921875 -18.921875 C 18.921875 -19.398438 19.066406 -19.816406 19.398438 -20.171875 L 19.421875 -20.191406 C 19.484375 -20.296875 19.484375 -20.398438 19.441406 -20.523438 C 19.378906 -20.648438 19.273438 -20.710938 19.148438 -20.710938 L 14.542969 -20.710938 C 14.398438 -20.710938 14.292969 -20.648438 14.253906 -20.523438 C 14.191406 -20.398438 14.191406 -20.296875 14.273438 -20.191406 L 14.292969 -20.171875 C 14.605469 -19.816406 14.773438 -19.398438 14.773438 -18.921875 L 14.773438 -8.5625 C 14.773438 -8.480469 14.730469 -8.417969 14.648438 -8.398438 C 14.566406 -8.375 14.503906 -8.398438 14.460938 -8.480469 L 7.9375 -19.441406 C 7.773438 -19.691406 7.8125 -19.941406 8.023438 -20.191406 C 8.085938 -20.296875 8.085938 -20.398438 8.042969 -20.523438 C 7.980469 -20.648438 7.875 -20.710938 7.75 -20.710938 L 7.1875 -20.710938 L 7.1875 -20.691406 L 7.1875 -20.710938 L 2.832031 -20.710938 C 2.6875 -20.710938 2.582031 -20.648438 2.542969 -20.523438 C 2.480469 -20.398438 2.480469 -20.296875 2.5625 -20.191406 C 2.894531 -19.816406 3.0625 -19.398438 3.0625 -18.941406 L 3.0625 -1.769531 C 3.0625 -1.292969 2.894531 -0.875 2.5625 -0.519531 C 2.480469 -0.394531 2.480469 -0.292969 2.542969 -0.167969 C 2.582031 -0.0429688 2.6875 0 2.832031 0 L 7.4375 0 C 7.5625 0 7.667969 -0.0429688 7.730469 -0.167969 C 7.773438 -0.292969 7.773438 -0.394531 7.710938 -0.519531 L 7.667969 -0.5625 C 7.335938 -0.894531 7.1875 -1.3125 7.1875 -1.8125 L 7.1875 -12.148438 C 7.1875 -12.230469 7.210938 -12.273438 7.292969 -12.292969 C 7.375 -12.316406 7.4375 -12.292969 7.5 -12.230469 L 14.042969 -1.25 C 14.167969 -0.980469 14.148438 -0.730469 13.960938 -0.519531 C 13.878906 -0.394531 13.878906 -0.292969 13.941406 -0.167969 C 13.980469 -0.0429688 14.085938 0 14.230469 0 L 19.148438 0 C 19.273438 0 19.378906 -0.0429688 19.441406 -0.167969 C 19.484375 -0.292969 19.484375 -0.394531 19.421875 -0.519531 Z M 19.421875 -0.519531 "/></g></g></g><g fill="#ffc1b2" fill-opacity="0.502"><g transform="translate(63.73477, 28.909997)"><g><path d="M 7.210938 -1.832031 L 7.210938 -18.878906 C 7.210938 -19.378906 7.375 -19.816406 7.710938 -20.191406 C 7.773438 -20.296875 7.773438 -20.398438 7.730469 -20.523438 C 7.667969 -20.648438 7.5625 -20.710938 7.4375 -20.710938 L 2.832031 -20.710938 C 2.6875 -20.710938 2.582031 -20.648438 2.542969 -20.523438 C 2.480469 -20.398438 2.480469 -20.296875 2.5625 -20.191406 C 2.894531 -19.816406 3.082031 -19.378906 3.082031 -18.878906 L 3.082031 -1.832031 C 3.082031 -1.332031 2.894531 -0.894531 2.5625 -0.519531 C 2.480469 -0.394531 2.480469 -0.292969 2.542969 -0.167969 C 2.582031 -0.0429688 2.6875 0 2.832031 0 L 7.4375 0 C 7.5625 0 7.667969 -0.0429688 7.730469 -0.167969 C 7.773438 -0.292969 7.773438 -0.394531 7.710938 -0.519531 C 7.542969 -0.6875 7.417969 -0.894531 7.335938 -1.125 C 7.25 -1.355469 7.210938 -1.582031 7.210938 -1.832031 Z M 7.210938 -1.832031 "/></g></g></g><g fill="#fffaef" fill-opacity="1"><g transform="translate(6.379667, 29.144089)"><g><path d="M 22.566406 -1.75 L 22.566406 -18.960938 C 22.566406 -19.421875 22.710938 -19.835938 23.046875 -20.191406 C 23.128906 -20.296875 23.148438 -20.398438 23.109375 -20.523438 C 23.046875 -20.648438 22.960938 -20.710938 22.835938 -20.710938 L 18.441406 -20.710938 L 18.421875 -20.691406 L 18.421875 -20.710938 L 17.859375 -20.710938 C 17.710938 -20.710938 17.609375 -20.648438 17.566406 -20.523438 C 17.503906 -20.398438 17.503906 -20.296875 17.585938 -20.191406 C 17.671875 -20.066406 17.648438 -19.984375 17.566406 -19.921875 L 13.273438 -15.960938 C 13.128906 -15.835938 12.960938 -15.792969 12.792969 -15.792969 C 12.628906 -15.792969 12.480469 -15.835938 12.355469 -15.960938 L 8 -19.960938 C 7.917969 -20.023438 7.917969 -20.085938 8 -20.171875 C 8.085938 -20.273438 8.105469 -20.398438 8.0625 -20.523438 C 8 -20.648438 7.898438 -20.710938 7.75 -20.710938 L 2.832031 -20.710938 C 2.6875 -20.710938 2.582031 -20.648438 2.542969 -20.523438 C 2.480469 -20.398438 2.480469 -20.296875 2.5625 -20.191406 L 2.582031 -20.171875 C 2.894531 -19.816406 3.0625 -19.398438 3.0625 -18.941406 L 3.0625 -1.769531 C 3.0625 -1.292969 2.894531 -0.875 2.582031 -0.542969 L 2.5625 -0.519531 C 2.480469 -0.394531 2.480469 -0.292969 2.542969 -0.167969 C 2.582031 -0.0429688 2.6875 0 2.832031 0 L 7.4375 0 C 7.5625 0 7.667969 -0.0429688 7.730469 -0.167969 C 7.773438 -0.292969 7.773438 -0.394531 7.710938 -0.519531 L 7.667969 -0.5625 C 7.335938 -0.894531 7.1875 -1.3125 7.1875 -1.792969 L 7.1875 -14.417969 C 7.1875 -14.542969 7.230469 -14.628906 7.355469 -14.667969 C 7.480469 -14.710938 7.585938 -14.710938 7.6875 -14.628906 L 12.355469 -10.292969 C 12.480469 -10.167969 12.628906 -10.105469 12.816406 -10.105469 C 12.980469 -10.105469 13.148438 -10.167969 13.273438 -10.292969 L 17.941406 -14.628906 C 18.023438 -14.710938 18.128906 -14.710938 18.253906 -14.667969 C 18.378906 -14.628906 18.441406 -14.542969 18.441406 -14.417969 L 18.441406 -1.8125 C 18.441406 -1.355469 18.273438 -0.9375 17.941406 -0.582031 L 17.898438 -0.519531 C 17.816406 -0.394531 17.816406 -0.292969 17.878906 -0.167969 C 17.921875 -0.0429688 18.023438 0 18.171875 0 L 22.835938 0 C 22.960938 0 23.046875 -0.0429688 23.109375 -0.167969 C 23.148438 -0.292969 23.128906 -0.394531 23.046875 -0.519531 C 22.710938 -0.855469 22.566406 -1.269531 22.566406 -1.75 Z M 22.566406 -1.75 "/></g></g></g><g fill="#fffaef" fill-opacity="1"><g transform="translate(32.009429, 29.144089)"><g><path d="M 7.210938 -1.832031 L 7.210938 -18.878906 C 7.210938 -19.378906 7.375 -19.816406 7.710938 -20.191406 C 7.773438 -20.296875 7.773438 -20.398438 7.730469 -20.523438 C 7.667969 -20.648438 7.5625 -20.710938 7.4375 -20.710938 L 2.832031 -20.710938 C 2.6875 -20.710938 2.582031 -20.648438 2.542969 -20.523438 C 2.480469 -20.398438 2.480469 -20.296875 2.5625 -20.191406 C 2.894531 -19.816406 3.082031 -19.378906 3.082031 -18.878906 L 3.082031 -1.832031 C 3.082031 -1.332031 2.894531 -0.894531 2.5625 -0.519531 C 2.480469 -0.394531 2.480469 -0.292969 2.542969 -0.167969 C 2.582031 -0.0429688 2.6875 0 2.832031 0 L 7.4375 0 C 7.5625 0 7.667969 -0.0429688 7.730469 -0.167969 C 7.773438 -0.292969 7.773438 -0.394531 7.710938 -0.519531 C 7.542969 -0.6875 7.417969 -0.894531 7.335938 -1.125 C 7.25 -1.355469 7.210938 -1.582031 7.210938 -1.832031 Z M 7.210938 -1.832031 "/></g></g></g><g fill="#fffaef" fill-opacity="1"><g transform="translate(42.303008, 29.144089)"><g><path d="M 19.421875 -0.519531 L 19.398438 -0.542969 C 19.066406 -0.875 18.921875 -1.292969 18.921875 -1.792969 L 18.921875 -18.921875 C 18.921875 -19.398438 19.066406 -19.816406 19.398438 -20.171875 L 19.421875 -20.191406 C 19.484375 -20.296875 19.484375 -20.398438 19.441406 -20.523438 C 19.378906 -20.648438 19.273438 -20.710938 19.148438 -20.710938 L 14.542969 -20.710938 C 14.398438 -20.710938 14.292969 -20.648438 14.253906 -20.523438 C 14.191406 -20.398438 14.191406 -20.296875 14.273438 -20.191406 L 14.292969 -20.171875 C 14.605469 -19.816406 14.773438 -19.398438 14.773438 -18.921875 L 14.773438 -8.5625 C 14.773438 -8.480469 14.730469 -8.417969 14.648438 -8.398438 C 14.566406 -8.375 14.503906 -8.398438 14.460938 -8.480469 L 7.9375 -19.441406 C 7.773438 -19.691406 7.8125 -19.941406 8.023438 -20.191406 C 8.085938 -20.296875 8.085938 -20.398438 8.042969 -20.523438 C 7.980469 -20.648438 7.875 -20.710938 7.75 -20.710938 L 7.1875 -20.710938 L 7.1875 -20.691406 L 7.1875 -20.710938 L 2.832031 -20.710938 C 2.6875 -20.710938 2.582031 -20.648438 2.542969 -20.523438 C 2.480469 -20.398438 2.480469 -20.296875 2.5625 -20.191406 C 2.894531 -19.816406 3.0625 -19.398438 3.0625 -18.941406 L 3.0625 -1.769531 C 3.0625 -1.292969 2.894531 -0.875 2.5625 -0.519531 C 2.480469 -0.394531 2.480469 -0.292969 2.542969 -0.167969 C 2.582031 -0.0429688 2.6875 0 2.832031 0 L 7.4375 0 C 7.5625 0 7.667969 -0.0429688 7.730469 -0.167969 C 7.773438 -0.292969 7.773438 -0.394531 7.710938 -0.519531 L 7.667969 -0.5625 C 7.335938 -0.894531 7.1875 -1.3125 7.1875 -1.8125 L 7.1875 -12.148438 C 7.1875 -12.230469 7.210938 -12.273438 7.292969 -12.292969 C 7.375 -12.316406 7.4375 -12.292969 7.5 -12.230469 L 14.042969 -1.25 C 14.167969 -0.980469 14.148438 -0.730469 13.960938 -0.519531 C 13.878906 -0.394531 13.878906 -0.292969 13.941406 -0.167969 C 13.980469 -0.0429688 14.085938 0 14.230469 0 L 19.148438 0 C 19.273438 0 19.378906 -0.0429688 19.441406 -0.167969 C 19.484375 -0.292969 19.484375 -0.394531 19.421875 -0.519531 Z M 19.421875 -0.519531 "/></g></g></g><g fill="#fffaef" fill-opacity="1"><g transform="translate(64.286256, 29.144089)"><g><path d="M 7.210938 -1.832031 L 7.210938 -18.878906 C 7.210938 -19.378906 7.375 -19.816406 7.710938 -20.191406 C 7.773438 -20.296875 7.773438 -20.398438 7.730469 -20.523438 C 7.667969 -20.648438 7.5625 -20.710938 7.4375 -20.710938 L 2.832031 -20.710938 C 2.6875 -20.710938 2.582031 -20.648438 2.542969 -20.523438 C 2.480469 -20.398438 2.480469 -20.296875 2.5625 -20.191406 C 2.894531 -19.816406 3.082031 -19.378906 3.082031 -18.878906 L 3.082031 -1.832031 C 3.082031 -1.332031 2.894531 -0.894531 2.5625 -0.519531 C 2.480469 -0.394531 2.480469 -0.292969 2.542969 -0.167969 C 2.582031 -0.0429688 2.6875 0 2.832031 0 L 7.4375 0 C 7.5625 0 7.667969 -0.0429688 7.730469 -0.167969 C 7.773438 -0.292969 7.773438 -0.394531 7.710938 -0.519531 C 7.542969 -0.6875 7.417969 -0.894531 7.335938 -1.125 C 7.25 -1.355469 7.210938 -1.582031 7.210938 -1.832031 Z M 7.210938 -1.832031 "/></g></g></g></svg>